<mxfile host="app.diagrams.net" modified="2023-11-08T08:12:41.508Z" agent="Mozilla/5.0 (Windows NT 10.0; Win64; x64; rv:109.0) Gecko/20100101 Firefox/119.0" etag="Zz9p_5-lTb1X1hwisSq-" version="22.0.8" type="device">
  <diagram name="Page-1" id="pMaITMsuI08cgOu4HQyg">
    <mxGraphModel dx="1740" dy="511" grid="1" gridSize="10" guides="1" tooltips="1" connect="1" arrows="1" fold="1" page="1" pageScale="1" pageWidth="827" pageHeight="1169" math="0" shadow="0">
      <root>
        <mxCell id="0" />
        <mxCell id="1" parent="0" />
        <mxCell id="MGlUB3hqsRXbeWnazsk7-8" value="Se présenter à l&#39;heure de conduite" style="ellipse;whiteSpace=wrap;html=1;fontSize=16;fillColor=#FFFF00;fontFamily=Comic Sans MS;" vertex="1" parent="1">
          <mxGeometry x="280" y="120" width="240" height="80" as="geometry" />
        </mxCell>
        <mxCell id="MGlUB3hqsRXbeWnazsk7-12" value="&lt;div&gt;Elève&lt;/div&gt;" style="whiteSpace=wrap;html=1;align=center;fontSize=16;labelBackgroundColor=none;fillColor=#00FF00;rounded=1;fontFamily=Comic Sans MS;" vertex="1" parent="1">
          <mxGeometry x="200" y="80" width="80" height="40" as="geometry" />
        </mxCell>
        <mxCell id="MGlUB3hqsRXbeWnazsk7-13" value="Moniteur" style="whiteSpace=wrap;html=1;align=center;fontSize=16;labelBackgroundColor=none;fillColor=#00FF00;rounded=1;fontFamily=Comic Sans MS;" vertex="1" parent="1">
          <mxGeometry x="520" y="80" width="80" height="40" as="geometry" />
        </mxCell>
        <mxCell id="MGlUB3hqsRXbeWnazsk7-14" value="Heure de conduite" style="shape=umlFrame;whiteSpace=wrap;html=1;pointerEvents=0;fontSize=16;width=320;height=40;fillColor=#647687;strokeColor=#314354;fontColor=#ffffff;" vertex="1" parent="1">
          <mxGeometry x="240" y="360" width="320" height="200" as="geometry" />
        </mxCell>
        <mxCell id="MGlUB3hqsRXbeWnazsk7-15" value="&lt;font style=&quot;font-size: 13px;&quot;&gt;Réussite de la leçon&lt;/font&gt;" style="whiteSpace=wrap;html=1;align=center;fontSize=16;" vertex="1" parent="1">
          <mxGeometry x="320" y="520" width="160" height="40" as="geometry" />
        </mxCell>
        <mxCell id="MGlUB3hqsRXbeWnazsk7-17" value="Besoin de plus de leçon" style="whiteSpace=wrap;html=1;align=center;fontSize=13;" vertex="1" parent="1">
          <mxGeometry x="480" y="520" width="80" height="40" as="geometry" />
        </mxCell>
        <mxCell id="MGlUB3hqsRXbeWnazsk7-18" value="Échec de la leçon" style="whiteSpace=wrap;html=1;align=center;fontSize=13;" vertex="1" parent="1">
          <mxGeometry x="240" y="520" width="80" height="40" as="geometry" />
        </mxCell>
        <mxCell id="MGlUB3hqsRXbeWnazsk7-21" value="" style="verticalLabelPosition=bottom;verticalAlign=top;html=1;shape=offPageConnector;rounded=0;size=0.4;fontSize=16;" vertex="1" parent="1">
          <mxGeometry x="280" y="310" width="240" height="50" as="geometry" />
        </mxCell>
        <mxCell id="MGlUB3hqsRXbeWnazsk7-27" value="a" style="html=1;verticalAlign=bottom;endArrow=block;curved=0;rounded=0;fontSize=12;startSize=8;endSize=8;exitX=0.5;exitY=1;exitDx=0;exitDy=0;" edge="1" parent="1" source="MGlUB3hqsRXbeWnazsk7-8" target="MGlUB3hqsRXbeWnazsk7-30">
          <mxGeometry width="80" relative="1" as="geometry">
            <mxPoint x="370" y="300" as="sourcePoint" />
            <mxPoint x="450" y="300" as="targetPoint" />
          </mxGeometry>
        </mxCell>
        <mxCell id="MGlUB3hqsRXbeWnazsk7-30" value="a ou (a et b)" style="text;strokeColor=none;fillColor=none;spacingLeft=4;spacingRight=4;overflow=hidden;rotatable=0;points=[[0,0.5],[1,0.5]];portConstraint=eastwest;fontSize=16;whiteSpace=wrap;html=1;align=center;" vertex="1" parent="1">
          <mxGeometry x="311.25" y="310" width="177.5" height="50" as="geometry" />
        </mxCell>
        <mxCell id="MGlUB3hqsRXbeWnazsk7-36" value="1) Inspection du véhicule" style="text;html=1;strokeColor=none;fillColor=none;align=center;verticalAlign=middle;whiteSpace=wrap;rounded=0;fontSize=16;" vertex="1" parent="1">
          <mxGeometry x="227.5" y="410" width="220" height="30" as="geometry" />
        </mxCell>
        <mxCell id="MGlUB3hqsRXbeWnazsk7-41" value="2) Démarrage de la leçon" style="text;html=1;strokeColor=none;fillColor=none;align=center;verticalAlign=middle;whiteSpace=wrap;rounded=0;fontSize=16;" vertex="1" parent="1">
          <mxGeometry x="227.5" y="440" width="222.5" height="30" as="geometry" />
        </mxCell>
        <mxCell id="MGlUB3hqsRXbeWnazsk7-42" value="3)Bilan de l&#39;heure de conduite" style="text;html=1;strokeColor=none;fillColor=none;align=center;verticalAlign=middle;whiteSpace=wrap;rounded=0;fontSize=16;" vertex="1" parent="1">
          <mxGeometry x="240" y="470" width="230" height="30" as="geometry" />
        </mxCell>
        <mxCell id="MGlUB3hqsRXbeWnazsk7-43" value="Ajout d&#39;une heure de conduite supplémentaire" style="ellipse;whiteSpace=wrap;html=1;fontSize=16;fillColor=#FFFF00;fontFamily=Comic Sans MS;" vertex="1" parent="1">
          <mxGeometry x="560" y="640" width="240" height="80" as="geometry" />
        </mxCell>
        <mxCell id="MGlUB3hqsRXbeWnazsk7-44" value="Recommence son heure à une date ultérieure" style="ellipse;whiteSpace=wrap;html=1;fontSize=16;fillColor=#FFFF00;fontFamily=Comic Sans MS;" vertex="1" parent="1">
          <mxGeometry x="-40" y="600" width="240" height="80" as="geometry" />
        </mxCell>
        <mxCell id="MGlUB3hqsRXbeWnazsk7-45" value="Se présenter à la nouvelle heure de conduite prévue" style="ellipse;whiteSpace=wrap;html=1;fontSize=16;fillColor=#FFFF00;fontFamily=Comic Sans MS;" vertex="1" parent="1">
          <mxGeometry x="280" y="720" width="240" height="80" as="geometry" />
        </mxCell>
        <mxCell id="MGlUB3hqsRXbeWnazsk7-46" value="&lt;div&gt;&lt;br&gt;&lt;/div&gt;&lt;div&gt;&lt;br&gt;&lt;/div&gt;" style="html=1;verticalAlign=bottom;endArrow=block;curved=0;rounded=0;fontSize=12;startSize=8;endSize=8;exitX=1;exitY=0.5;exitDx=0;exitDy=0;" edge="1" parent="1" source="MGlUB3hqsRXbeWnazsk7-17" target="MGlUB3hqsRXbeWnazsk7-43">
          <mxGeometry width="80" relative="1" as="geometry">
            <mxPoint x="640" y="470" as="sourcePoint" />
            <mxPoint x="740" y="580" as="targetPoint" />
          </mxGeometry>
        </mxCell>
        <mxCell id="MGlUB3hqsRXbeWnazsk7-47" value="&lt;div&gt;b&lt;/div&gt;" style="html=1;verticalAlign=bottom;endArrow=block;curved=0;rounded=0;fontSize=12;startSize=8;endSize=8;exitX=0.5;exitY=0;exitDx=0;exitDy=0;entryX=1;entryY=0.25;entryDx=0;entryDy=0;" edge="1" parent="1" source="MGlUB3hqsRXbeWnazsk7-43" target="MGlUB3hqsRXbeWnazsk7-21">
          <mxGeometry width="80" relative="1" as="geometry">
            <mxPoint x="570" y="550" as="sourcePoint" />
            <mxPoint x="680" y="320" as="targetPoint" />
            <Array as="points">
              <mxPoint x="680" y="320" />
            </Array>
            <mxPoint as="offset" />
          </mxGeometry>
        </mxCell>
        <mxCell id="MGlUB3hqsRXbeWnazsk7-48" value="&lt;div&gt;&lt;br&gt;&lt;/div&gt;&lt;div&gt;&lt;br&gt;&lt;/div&gt;" style="html=1;verticalAlign=bottom;endArrow=block;curved=0;rounded=0;fontSize=12;startSize=8;endSize=8;exitX=0.5;exitY=1;exitDx=0;exitDy=0;entryX=0.5;entryY=0;entryDx=0;entryDy=0;" edge="1" parent="1" source="MGlUB3hqsRXbeWnazsk7-15" target="MGlUB3hqsRXbeWnazsk7-45">
          <mxGeometry width="80" relative="1" as="geometry">
            <mxPoint x="570" y="550" as="sourcePoint" />
            <mxPoint x="657" y="652" as="targetPoint" />
          </mxGeometry>
        </mxCell>
        <mxCell id="MGlUB3hqsRXbeWnazsk7-49" value="&lt;div&gt;&lt;br&gt;&lt;/div&gt;&lt;div&gt;&lt;br&gt;&lt;/div&gt;" style="html=1;verticalAlign=bottom;endArrow=block;curved=0;rounded=0;fontSize=12;startSize=8;endSize=8;exitX=0;exitY=0.5;exitDx=0;exitDy=0;entryX=0.5;entryY=0;entryDx=0;entryDy=0;" edge="1" parent="1" source="MGlUB3hqsRXbeWnazsk7-18" target="MGlUB3hqsRXbeWnazsk7-44">
          <mxGeometry width="80" relative="1" as="geometry">
            <mxPoint x="580" y="560" as="sourcePoint" />
            <mxPoint x="667" y="662" as="targetPoint" />
          </mxGeometry>
        </mxCell>
        <mxCell id="MGlUB3hqsRXbeWnazsk7-50" style="edgeStyle=none;curved=1;rounded=0;orthogonalLoop=1;jettySize=auto;html=1;exitX=0.75;exitY=1;exitDx=0;exitDy=0;fontSize=12;startSize=8;endSize=8;" edge="1" parent="1" source="MGlUB3hqsRXbeWnazsk7-12" target="MGlUB3hqsRXbeWnazsk7-12">
          <mxGeometry relative="1" as="geometry" />
        </mxCell>
      </root>
    </mxGraphModel>
  </diagram>
</mxfile>
